<svg xmlns="http://www.w3.org/2000/svg" width="120" height="69" fill="none">
  <rect width="120" height="69" rx="8" fill="#000"/>
  <g transform="translate(16,16)">
    <path d="M22.13 5.983h-3.07V28.56h3.07V5.983Zm10.78 20.153c-2.887 0-4.96-2.294-4.96-5.145 0-2.77 2.056-5.047 4.96-5.047 2.836 0 4.86 2.294 4.86 5.047 0 2.85-2.024 5.145-4.86 5.145Zm0-12.993c-4.596 0-8.046 3.522-8.046 7.848 0 4.39 3.434 7.946 8.045 7.946 4.529 0 7.946-3.555 7.946-7.946 0-4.326-3.4-7.848-7.946-7.848Zm18.048 12.993c-2.886 0-4.96-2.294-4.96-5.145 0-2.77 2.057-5.047 4.96-5.047 2.836 0 4.86 2.294 4.86 5.047 0 2.85-2.024 5.145-4.86 5.145Zm0-12.993c-4.595 0-8.045 3.522-8.045 7.848 0 4.39 3.433 7.946 8.045 7.946 4.528 0 7.945-3.555 7.945-7.946 0-4.326-3.4-7.848-7.945-7.848ZM0 20.992c0 4.39 3.45 7.946 8.045 7.946 1.875 0 3.533-.606 4.86-1.622v1.098c0 3.523-1.741 4.768-4.926 4.768l.033 2.834c3.948 0 7.946-1.343 7.946-8.29V13.275h-2.903l-.133 1.474a8.033 8.033 0 0 0-4.86-1.605C3.45 13.144 0 16.666 0 20.992Zm8.045 5.145c-2.903 0-4.96-2.294-4.96-5.145 0-2.77 2.057-5.047 4.96-5.047 2.837 0 4.86 2.294 4.86 5.047 0 2.867-2.023 5.145-4.86 5.145Z" fill="#fff"/>
    <path d="M71.28 28.398c-3.915 0-7.096-3.273-7.096-7.616s3.242-7.584 7.096-7.584c3.15 0 4.802 1.773 5.597 2.997l.244-.153c-.183-.245-.244-.49-.244-.795v-1.774h1.988V28h-1.988v-1.651c0-.367.091-.612.244-.826l-.244-.153c-.765 1.193-2.447 3.028-5.597 3.028Zm.275-1.835c3.242 0 5.444-2.57 5.444-5.78 0-3.15-2.202-5.75-5.444-5.75-3.12 0-5.413 2.6-5.413 5.75 0 3.241 2.294 5.78 5.413 5.78ZM83.93 9.619c-.764 0-1.315-.55-1.315-1.315 0-.764.55-1.315 1.316-1.315.764 0 1.315.55 1.315 1.315 0 .765-.55 1.315-1.316 1.315ZM84.94 28h-1.99V13.473h1.988V28Z" fill="url(#gloo-ai-gradient)"/>
    <defs>
      <linearGradient id="gloo-ai-gradient" x1="63.688" y1="0" x2="94.356" y2="25.25" gradientUnits="userSpaceOnUse">
        <stop stop-color="#FFF0B1"/>
        <stop offset=".35" stop-color="#FFDE4B"/>
        <stop offset=".5" stop-color="#FFD727"/>
        <stop offset=".7" stop-color="#F6C414"/>
        <stop offset=".9" stop-color="#CF8A11"/>
        <stop offset="1" stop-color="#90640A"/>
      </linearGradient>
    </defs>
  </g>
</svg>
